# This file uses centimeters as units for non-parametric coordinates.

mtllib Wall_L.mtl
g default
v -4.000000 0.000000 0.500000
v 0.000000 0.000000 0.500000
v -4.000000 6.000000 0.500000
v 0.000000 6.000000 0.500000
v -4.000000 6.000000 0.000000
v 0.000000 6.000000 0.000000
v -4.000000 0.000000 0.000000
v 0.000000 0.000000 0.000000
vt 0.017000 0.008756
vt 0.098839 0.008756
vt 0.220146 0.010650
vt 0.220146 0.812509
vt 0.320378 0.010650
vt 0.320378 0.812509
vt 0.098839 0.990828
vt 0.017000 0.990828
vt 0.340187 0.010600
vt 0.571664 0.010600
vt 0.571664 0.357815
vt 0.340187 0.357815
vt 0.824672 0.357815
vt 0.593195 0.357815
vt 0.593195 0.010600
vt 0.824672 0.010600
vt 0.118573 0.008756
vt 0.200412 0.008756
vt 0.200412 0.990828
vt 0.118573 0.990828
vn 0.000000 0.000000 1.000000
vn 0.000000 0.000000 1.000000
vn 0.000000 0.000000 1.000000
vn 0.000000 0.000000 1.000000
vn 0.000000 1.000000 0.000000
vn 0.000000 1.000000 0.000000
vn 0.000000 1.000000 0.000000
vn 0.000000 1.000000 0.000000
vn 0.000000 0.000000 -1.000000
vn 0.000000 0.000000 -1.000000
vn 0.000000 0.000000 -1.000000
vn 0.000000 0.000000 -1.000000
vn 1.000000 0.000000 0.000000
vn 1.000000 0.000000 0.000000
vn 1.000000 0.000000 0.000000
vn 1.000000 0.000000 0.000000
vn -1.000000 0.000000 0.000000
vn -1.000000 0.000000 0.000000
vn -1.000000 0.000000 0.000000
vn -1.000000 0.000000 0.000000
s off
g wall
usemtl initialShadingGroup
f 1/9/1 2/10/2 4/11/3 3/12/4
f 3/4/5 4/3/6 6/5/7 5/6/8
f 5/13/9 6/14/10 8/15/11 7/16/12
f 2/1/13 8/2/14 6/7/15 4/8/16
f 7/17/17 1/18/18 3/19/19 5/20/20
